<?xml version="1.0" encoding="utf-8"?>
<!-- Generator: Adobe Illustrator 21.0.0, SVG Export Plug-In . SVG Version: 6.00 Build 0)  -->
<svg version="1.1" id="Camada_1" xmlns="http://www.w3.org/2000/svg" xmlns:xlink="http://www.w3.org/1999/xlink" x="0px" y="0px"
	 viewBox="0 0 595.3 331.8" style="enable-background:new 0 0 595.3 331.8;" xml:space="preserve">
<style type="text/css">
	.st0{fill:#616160;}
	.st1{fill:#E4405F;}
	.st2{opacity:0.15;fill:#040506;}
</style>
<g>
	<path class="st0" d="M402.5,236.4c-36.7,0-59.2-42.7-68.4-65.2l-52.9,95.4c22.5,31.2,59.1,59.4,118.1,59.4
		c132.4,0,165.1-129.1,165.1-129.1h-91.2C473.1,196.8,452.3,236.4,402.5,236.4z"/>
	<path class="st1" d="M143.2,314.7h111.3l80.2-144.4c0,0,35-64.9,79.5-64.9s59.9,28,59.1,38.7H568c0,0-20.6-129.4-145.1-129.4
		S239.3,142.4,239.3,142.4L143.2,314.7z"/>
	<polygon class="st0" points="28.2,38.6 139.4,38.6 207.2,200 143.2,314.7 	"/>
	<polygon class="st2" points="143.2,314.7 189.2,157.3 207.2,200 	"/>
	<path class="st2" d="M334.1,171.2l-52.9,95.4l59.4-81.3C338,180.1,335.8,175.3,334.1,171.2z"/>
</g>
</svg>
