<?xml version="1.0" encoding="utf-8"?>
<!-- Generator: Adobe Illustrator 21.0.0, SVG Export Plug-In . SVG Version: 6.00 Build 0)  -->
<svg version="1.1" id="Camada_1" xmlns="http://www.w3.org/2000/svg" xmlns:xlink="http://www.w3.org/1999/xlink" x="0px" y="0px"
	 viewBox="0 0 595.3 120.5" style="enable-background:new 0 0 595.3 120.5;" xml:space="preserve">
<style type="text/css">
	.st0{fill:#5A5A60;}
	.st1{fill:#E4405F;}
	.st2{opacity:0.15;fill:#040506;}
	.st3{fill:#616160;}
</style>
<g>
	<g>
		<g>
			<path class="st0" d="M114.6,80.8c-10.3,0-16.7-12.1-19.3-18.4L80.4,89.3c6.3,8.8,16.7,16.7,33.3,16.7c37.3,0,46.5-36.4,46.5-36.4
				h-25.7C134.5,69.6,128.7,80.8,114.6,80.8z"/>
			<path class="st1" d="M41.5,102.9h31.4l22.6-40.7c0,0,9.9-18.3,22.4-18.3s16.9,7.9,16.7,10.9h26.7c0,0-5.8-36.5-40.9-36.5
				s-51.8,36-51.8,36L41.5,102.9z"/>
			<polygon class="st0" points="9.1,25 40.5,25 59.5,70.5 41.5,102.9 			"/>
			<polygon class="st2" points="41.5,102.9 54.5,58.5 59.5,70.5 			"/>
			<path class="st2" d="M95.3,62.4L80.4,89.3l16.8-22.9C96.4,64.9,95.8,63.6,95.3,62.4z"/>
		</g>
	</g>
	<g>
		<g>
			<path class="st3" d="M230.2,46.4c0.3-0.4,0.7-0.9,1.4-0.9c0.7,0,1.2,0.5,1.2,1.2c0,0.4-0.2,0.7-0.3,0.9l-25.9,39.2
				c-0.3,0.4-0.8,0.7-1.3,0.7s-1-0.3-1.1-1l-6.3-38.6c-0.1-0.4-0.1-0.6-0.1-1c0.1-0.8,0.7-1.4,1.5-1.4c0.8,0,1.1,0.5,1.2,0.9l5.7,37
				L230.2,46.4z"/>
			<path class="st3" d="M228.4,72.9c0.9-13.2,7.9-28,24.7-28c9.6,0,14.8,4.8,14.1,15c-0.9,13.2-7.8,28-24.7,28
				C232.9,87.9,227.7,83.1,228.4,72.9z M264.2,60.1c0.6-8.8-3.6-12.8-11.8-12.8c-13.8,0-20.3,12.4-21.2,25.6
				c-0.6,8.8,3.6,12.8,11.8,12.8C256.8,85.6,263.3,73.2,264.2,60.1z"/>
			<path class="st3" d="M294,44.9c8.8,0,11.2,4.9,11.6,6c0.1,0.2,0.1,0.5,0.1,0.8c-0.1,0.7-0.7,1.2-1.3,1.2c-0.4,0-0.7-0.1-0.9-0.5
				c-0.9-1.8-3-5.1-10.1-5.1c-12.6,0-20.3,11-21.3,25.6c-0.6,8.9,3.5,12.8,11.8,12.8c5.2,0,9.5-2.3,12.7-4.5
				c0.3-0.2,0.6-0.3,0.8-0.3c0.6,0,1.1,0.4,1.1,1.2c0,0.4-0.2,0.8-0.8,1.2c-2.2,1.4-7.1,4.7-14.4,4.7c-9.7,0-14.9-4.8-14.1-15
				C270.5,55.6,280,44.9,294,44.9z"/>
			<path class="st3" d="M304.2,73.1c0.9-12.5,7.6-28.1,24.9-28.1c8.1,0,11.9,4.5,11.6,9.3c-0.9,12.5-17.1,13.5-32.8,13.5
				c-0.4,1.3-0.8,3.9-0.9,5.3c-0.5,6.8,1.3,12.6,11.7,12.6c5.7,0,9.6-1.8,13.2-4.5c0.3-0.2,0.5-0.3,0.7-0.3c0.6,0,1.1,0.5,1.1,1.2
				c0,0.4-0.2,0.7-0.8,1.2c-2.5,1.9-7.2,4.7-14.7,4.7C308.4,87.9,303.5,83.3,304.2,73.1z M328.6,47.3c-9.1,0-17.1,5.4-20.2,18.1
				c13.7,0,29.2-0.5,29.9-10.7C338.5,50.4,334.9,47.3,328.6,47.3z M322.5,38.8c-0.3,0.2-0.5,0.4-0.9,0.4c-0.5,0-1-0.5-1-1.2
				c0-0.4,0.2-0.7,0.6-1l10.9-7.9c0.4-0.3,0.7-0.4,1-0.4c0.4,0,0.6,0.2,0.9,0.4l6.9,8c0.2,0.3,0.3,0.6,0.3,0.9
				c0,0.6-0.6,1.2-1.2,1.2c-0.4,0-0.7-0.2-1-0.5l-6.1-7.3L322.5,38.8z"/>
			<path class="st3" d="M375.1,82.7c-0.6,2.7-3,4.8-6,4.8c-2.7,0-4.4-2-3.6-4.8l0.6-2.1c-2.5,3.7-6.7,7.3-13.7,7.3
				c-8.5,0-12.6-6.3-12-15.1c1.1-16.3,12.1-27.9,25.5-27.9c3.9,0,7.1,1.5,8.8,3.2c1-1.6,2.7-2.7,4.8-2.7c2.7,0,4.2,2.1,3.6,4.8
				L375.1,82.7z M355.9,79.9c6.5,0,11.4-5.3,13.5-13.5l2.7-10.9c-1.9-1.4-4-2.1-6.6-2.1c-7.6,0-14.5,6.6-15.3,18.6
				C349.9,76.4,351.9,79.9,355.9,79.9z"/>
			<path class="st3" d="M388.3,54.2c-2,0-3.3-1.5-3.2-3.4c0.2-2.5,2.6-4.6,5.2-4.6h1.8l1.2-4.8c2.1-8.3,8.3-15.8,20.9-15.8
				c2.1,0,3.5,1.6,3.3,3.6c-0.2,2.6-2.8,4.8-5.3,4.8c-4.9,0-8.1,2.8-9,6.7l-1.4,5.5h6c2,0,3.2,1.5,3.1,3.4c-0.2,2.5-2.6,4.6-5.1,4.6
				h-6.1L392,86.1c-2.4,10-9.1,18.6-21.8,18.6c-2.1,0-3.5-1.6-3.3-3.6c0.2-2.6,2.8-4.8,5.3-4.8c5.5,0,8.6-3.9,10-9.7l7.9-32.4H388.3
				z"/>
			<path class="st3" d="M418.1,82.7c-0.6,2.7-3,4.8-6,4.8c-2.7,0-4.3-2.1-3.7-4.8l8-32.4c0.6-2.7,3-4.8,6.1-4.8
				c2.7,0,4.2,2.1,3.6,4.8L418.1,82.7z M431,33.4c-0.3,3.9-2.6,7.2-7.4,7.2c-3.1,0-4.7-1.6-4.5-4.3c0.3-3.9,2.6-7.2,7.4-7.2
				C429.6,29.1,431.2,30.7,431,33.4z"/>
			<path class="st3" d="M448.7,28l-12.1,48.6c-0.4,1.4,0.8,2,1.5,2c2.2,0,3.5,1.5,3.3,3.7c-0.2,2.8-2.7,5.3-6.1,5.3
				c-6,0-9-3-8.6-8.6c0.1-0.9,0.2-1.8,0.5-2.9L439.1,28c0.6-2.7,3.3-4.8,6-4.8C447.7,23.1,449.4,25.3,448.7,28z"/>
			<path class="st3" d="M454.6,82.7c-0.6,2.7-3,4.8-6,4.8c-2.7,0-4.3-2.1-3.7-4.8l8-32.4c0.6-2.7,3-4.8,6.1-4.8
				c2.7,0,4.2,2.1,3.6,4.8L454.6,82.7z M467.5,33.4c-0.3,3.9-2.6,7.2-7.4,7.2c-3.1,0-4.7-1.6-4.5-4.3c0.3-3.9,2.6-7.2,7.4-7.2
				C466.1,29.1,467.7,30.7,467.5,33.4z"/>
			<path class="st3" d="M496.7,82.7c-0.6,2.7-3,4.8-6,4.8c-2.7,0-4.4-2-3.6-4.8l0.6-2.1c-2.5,3.7-6.7,7.3-13.7,7.3
				c-8.5,0-12.6-6.3-12-15.1c1.1-16.3,12.1-27.9,25.5-27.9c3.9,0,7.1,1.5,8.8,3.2c1-1.6,2.7-2.7,4.8-2.7c2.7,0,4.2,2.1,3.6,4.8
				L496.7,82.7z M477.5,79.9c6.5,0,11.5-5.3,13.5-13.5l2.7-10.9c-1.9-1.4-4-2.1-6.6-2.1c-7.6,0-14.5,6.6-15.3,18.6
				C471.6,76.4,473.6,79.9,477.5,79.9z"/>
			<path class="st3" d="M537.5,48.5l5.1-20.6c0.6-2.7,3.3-4.8,6-4.8c2.7,0,4.3,2.1,3.7,4.8l-10.4,42.1
				c-2.9,11.9-10.5,17.9-22.5,17.9c-10.2,0-15.9-5.8-15.2-16.4c1.1-16.4,10.8-26.6,23.9-26.6C532.4,44.9,536,46.7,537.5,48.5z
				 M535.3,57.7c0,0-1.8-4.6-7.7-4.6c-7.8,0-12.9,7.5-13.5,17c-0.4,5.7,2,9.6,7,9.6c5.2,0,9.6-3.5,11.2-9.7L535.3,57.7z"/>
			<path class="st3" d="M587.3,60.5c-1,13.8-8.9,27.4-25.9,27.4c-10.1,0-16-5-15.3-15.6c1-13.8,8.9-27.4,25.9-27.4
				C582.1,44.9,588,50,587.3,60.5z M577.4,61.9c0.4-5.8-2.1-8.8-7.3-8.8c-9.3,0-13.4,9.8-13.9,17.8c-0.4,5.8,2.1,8.8,7.3,8.8
				C572.7,79.7,576.8,69.9,577.4,61.9z"/>
		</g>
	</g>
</g>
</svg>
